{
  "asset": {
    "version": "2.0",
    "generator": "THREE.GLTFExporter"
  },
  "scenes": [
    {
      "nodes": [
        0
      ]
    }
  ],
  "scene": 0,
  "nodes": [
    {
      "children": [
        6
      ],
      "matrix": [
        0.01,
        0,
        0,
        0,
        0,
        0.01,
        0,
        0,
        0,
        0,
        0.01,
        0,
        0,
        0,
        0,
        1
      ]
    },
    {
      "matrix": [
        1,
        0,
        0,
        0,
        0,
        1,
        0,
        0,
        0,
        0,
        1,
        0,
        111.91932500077192,
        -27.421109903883455,
        -36.39449749023034,
        1
      ],
      "name": "Daccord",
      "mesh": 0
    },
    {
      "matrix": [
        0.984207834737688,
        0.004233974134784331,
        -0.17696613095159722,
        0,
        -0.03436929492884695,
        0.9852601833286974,
        -0.16757423045682085,
        0,
        0.1736481776669304,
        0.17101007166283438,
        0.9698463103929542,
        0,
        145,
        -457.5,
        29.39910379625144,
        1
      ],
      "name": "UI",
      "children": [
        1
      ]
    },
    {
      "matrix": [
        0.9730286475324958,
        0.04079161796902084,
        0.22704910258477412,
        0,
        -0.041885529276961535,
        0.9991224161418804,
        0,
        0,
        -0.22684984795734517,
        -0.009510071833622399,
        0.9738833118066295,
        0,
        0,
        0,
        0,
        1
      ],
      "name": "Directional Light",
      "extensions": {
        "KHR_lights_punctual": {
          "light": 0
        }
      }
    },
    {
      "matrix": [
        0.9809822836492732,
        -2.5432138572173413e-8,
        -0.19409729304206255,
        0,
        -0.033072593118889757,
        0.985376365064116,
        -0.16715149642591437,
        0,
        0.19125888933759214,
        0.17039195747754482,
        0.9666367560135096,
        0,
        151.56242721672535,
        -524.9894420489547,
        -209.08612070755805,
        1
      ],
      "camera": 0
    },
    {
      "matrix": [
        1,
        0,
        0,
        0,
        0,
        1,
        0,
        0,
        0,
        0,
        1,
        0,
        0,
        1,
        0,
        1
      ],
      "name": "Default Ambient Light"
    },
    {
      "name": "Scene",
      "children": [
        2,
        3,
        4,
        5
      ]
    }
  ],
  "bufferViews": [
    {
      "buffer": 0,
      "byteOffset": 0,
      "byteLength": 2496,
      "target": 34962,
      "byteStride": 12
    },
    {
      "buffer": 0,
      "byteOffset": 2496,
      "byteLength": 2496,
      "target": 34962,
      "byteStride": 12
    },
    {
      "buffer": 0,
      "byteOffset": 4992,
      "byteLength": 1664,
      "target": 34962,
      "byteStride": 8
    },
    {
      "buffer": 0,
      "byteOffset": 6656,
      "byteLength": 2448,
      "target": 34963
    }
  ],
  "buffers": [
    {
      "byteLength": 9104,
      "uri": "data:application/octet-stream;base64,"
    }
  ],
  "accessors": [
    {
      "bufferView": 0,
      "componentType": 5126,
      "count": 208,
      "max": [
        200,
        422,
        1
      ],
      "min": [
        -200,
        -422,
        0
      ],
      "type": "VEC3"
    },
    {
      "bufferView": 1,
      "componentType": 5126,
      "count": 208,
      "max": [
        1,
        1,
        1
      ],
      "min": [
        -1,
        -1,
        -1
      ],
      "type": "VEC3"
    },
    {
      "bufferView": 2,
      "componentType": 5126,
      "count": 208,
      "max": [
        1,
        1
      ],
      "min": [
        0,
        0
      ],
      "type": "VEC2"
    },
    {
      "bufferView": 3,
      "componentType": 5125,
      "count": 612,
      "max": [
        207
      ],
      "min": [
        0
      ],
      "type": "SCALAR"
    }
  ],
  "meshes": [
    {
      "primitives": [
        {
          "mode": 4,
          "attributes": {
            "POSITION": 0,
            "NORMAL": 1,
            "TEXCOORD_0": 2
          },
          "extras": {
            "parameters": {
              "width": 400,
              "subdivisions": 12,
              "roundness": 20,
              "extrudeBevelSize": 0,
              "extrudeBevelSegments": 1,
              "windingRule": 0,
              "depth": 1,
              "cornerRadius": [
                20,
                20,
                20,
                20
              ],
              "cornerType": 1,
              "height": 844,
              "type": "VectorGeometry",
              "shape": {
                "isClosed": true,
                "points": [
                  {
                    "id": "5bb41a18-099a-45da-9d9d-fe4ca5d452c4",
                    "fi": 0,
                    "data": {
                      "position": [
                        -200,
                        422
                      ],
                      "controlNext": {
                        "position": [
                          -200,
                          422
                        ]
                      },
                      "controlPrevious": {
                        "position": [
                          -200,
                          422
                        ]
                      },
                      "areControlsDirectionsMirrored": true,
                      "roundness": 20
                    }
                  },
                  {
                    "id": "477e5ed7-746a-4f2c-b05e-bec3a2b79b3e",
                    "fi": 1,
                    "data": {
                      "position": [
                        200,
                        422
                      ],
                      "controlNext": {
                        "position": [
                          200,
                          422
                        ]
                      },
                      "controlPrevious": {
                        "position": [
                          200,
                          422
                        ]
                      },
                      "areControlsDirectionsMirrored": true,
                      "roundness": 20
                    }
                  },
                  {
                    "id": "3faf1ff4-b76a-47b4-bee2-205ff0f49393",
                    "fi": 2,
                    "data": {
                      "position": [
                        200,
                        -422
                      ],
                      "controlNext": {
                        "position": [
                          200,
                          -422
                        ]
                      },
                      "controlPrevious": {
                        "position": [
                          200,
                          -422
                        ]
                      },
                      "areControlsDirectionsMirrored": true,
                      "roundness": 20
                    }
                  },
                  {
                    "id": "4c98e685-cc9c-4722-a819-565315d0557b",
                    "fi": 3,
                    "data": {
                      "position": [
                        -200,
                        -422
                      ],
                      "controlNext": {
                        "position": [
                          -200,
                          -422
                        ]
                      },
                      "controlPrevious": {
                        "position": [
                          -200,
                          -422
                        ]
                      },
                      "areControlsDirectionsMirrored": true,
                      "roundness": 20
                    }
                  }
                ],
                "roundness": 20,
                "shapeHoles": []
              }
            },
            "shape": {
              "points": [
                -200,
                422,
                -200,
                422,
                -200,
                422,
                20,
                200,
                422,
                200,
                422,
                200,
                422,
                20,
                200,
                -422,
                200,
                -422,
                200,
                -422,
                20,
                -200,
                -422,
                -200,
                -422,
                -200,
                -422,
                20
              ],
              "shapeHoles": [],
              "isClosed": true,
              "roundness": 20
            },
            "type": "VectorGeometry"
          },
          "indices": 3
        }
      ]
    }
  ],
  "extensions": {
    "KHR_lights_punctual": {
      "lights": [
        {
          "name": "Directional Light",
          "color": [
            1,
            1,
            1
          ],
          "intensity": 0.7,
          "type": "directional"
        }
      ]
    }
  },
  "cameras": [
    {
      "type": "orthographic",
      "orthographic": {
        "xmag": 3.168912014292713,
        "ymag": 1.5448446069676975,
        "zfar": 100000,
        "znear": 0
      }
    }
  ],
  "extensionsUsed": [
    "KHR_lights_punctual"
  ]
}