{
  "asset": {
    "version": "2.0",
    "generator": "THREE.GLTFExporter"
  },
  "scenes": [
    {
      "nodes": [
        0
      ]
    }
  ],
  "scene": 0,
  "nodes": [
    {
      "children": [
        8
      ],
      "matrix": [
        0.01,
        0,
        0,
        0,
        0,
        0.01,
        0,
        0,
        0,
        0,
        0.01,
        0,
        0,
        0,
        0,
        1
      ]
    },
    {
      "matrix": [
        1,
        0,
        0,
        0,
        0,
        1,
        0,
        0,
        0,
        0,
        1,
        0,
        -97.73311541594012,
        24.201500427501315,
        440.3360751626751,
        1
      ],
      "name": "Point Light",
      "extensions": {
        "KHR_lights_punctual": {
          "light": 0
        }
      }
    },
    {
      "matrix": [
        0.42808634473904467,
        0.2853908964926964,
        -0.8574929257125442,
        0,
        -0.554700196225229,
        0.8320502943378437,
        0,
        0,
        0.7134772412317412,
        0.47565149415449404,
        0.5144957554275265,
        0,
        0,
        0,
        0,
        1
      ],
      "name": "Directional Light",
      "extensions": {
        "KHR_lights_punctual": {
          "light": 1
        }
      }
    },
    {
      "matrix": [
        1,
        0,
        0,
        0,
        0,
        2.220446049250411e-16,
        -1.0000000000000442,
        0,
        0,
        1.0000000000000442,
        2.220446049250411e-16,
        0,
        0,
        200,
        3.197442310920451e-14,
        1
      ],
      "name": "Rectangle 3",
      "mesh": 0
    },
    {
      "matrix": [
        1,
        0,
        0,
        0,
        0,
        2.220446049250381e-16,
        -1.0000000000000306,
        0,
        0,
        1.0000000000000306,
        2.220446049250381e-16,
        0,
        0,
        100,
        1.0658141036401503e-14,
        1
      ],
      "name": "Rectangle 2",
      "mesh": 1
    },
    {
      "matrix": [
        1,
        0,
        0,
        0,
        0,
        2.2204460492503264e-16,
        -1.000000000000006,
        0,
        0,
        1.000000000000006,
        2.2204460492503264e-16,
        0,
        0,
        0,
        0,
        1
      ],
      "name": "Rectangle",
      "mesh": 2
    },
    {
      "matrix": [
        0.9998864665370327,
        -8.673617379884035e-19,
        -0.015068312317156768,
        0,
        -0.014918829822809867,
        0.14050704299212813,
        -0.9899672718763619,
        0,
        0.0021172040065655633,
        0.9900796790509381,
        0.140491090740966,
        0,
        -18.766902861980704,
        1042.0734716740656,
        109.38140498638265,
        1
      ],
      "camera": 0
    },
    {
      "matrix": [
        1,
        0,
        0,
        0,
        0,
        1,
        0,
        0,
        0,
        0,
        1,
        0,
        0,
        1,
        0,
        1
      ],
      "name": "Default Ambient Light"
    },
    {
      "name": "Scene",
      "children": [
        1,
        2,
        3,
        4,
        5,
        6,
        7
      ]
    }
  ],
  "extensions": {
    "KHR_lights_punctual": {
      "lights": [
        {
          "name": "Point Light",
          "color": [
            1,
            1,
            1
          ],
          "intensity": 1,
          "type": "point",
          "range": 2000
        },
        {
          "name": "Directional Light",
          "color": [
            1,
            1,
            1
          ],
          "intensity": 0.7,
          "type": "directional"
        }
      ]
    }
  },
  "bufferViews": [
    {
      "buffer": 0,
      "byteOffset": 0,
      "byteLength": 23880,
      "target": 34962,
      "byteStride": 12
    },
    {
      "buffer": 0,
      "byteOffset": 23880,
      "byteLength": 23880,
      "target": 34962,
      "byteStride": 12
    },
    {
      "buffer": 0,
      "byteOffset": 47760,
      "byteLength": 15920,
      "target": 34962,
      "byteStride": 8
    },
    {
      "buffer": 0,
      "byteOffset": 63680,
      "byteLength": 39312,
      "target": 34963
    },
    {
      "buffer": 0,
      "byteOffset": 102992,
      "byteLength": 23880,
      "target": 34962,
      "byteStride": 12
    },
    {
      "buffer": 0,
      "byteOffset": 126872,
      "byteLength": 23880,
      "target": 34962,
      "byteStride": 12
    },
    {
      "buffer": 0,
      "byteOffset": 150752,
      "byteLength": 15920,
      "target": 34962,
      "byteStride": 8
    },
    {
      "buffer": 0,
      "byteOffset": 166672,
      "byteLength": 39312,
      "target": 34963
    },
    {
      "buffer": 0,
      "byteOffset": 205984,
      "byteLength": 23880,
      "target": 34962,
      "byteStride": 12
    },
    {
      "buffer": 0,
      "byteOffset": 229864,
      "byteLength": 23880,
      "target": 34962,
      "byteStride": 12
    },
    {
      "buffer": 0,
      "byteOffset": 253744,
      "byteLength": 15920,
      "target": 34962,
      "byteStride": 8
    },
    {
      "buffer": 0,
      "byteOffset": 269664,
      "byteLength": 39312,
      "target": 34963
    }
  ],
  "buffers": [
    {
      "byteLength": 308976,
      "uri": "data:application/octet-stream;base64,"
    }
  ],
  "accessors": [
    {
      "bufferView": 0,
      "componentType": 5126,
      "count": 1990,
      "max": [
        200,
        200,
        16
      ],
      "min": [
        -200,
        -200,
        0
      ],
      "type": "VEC3"
    },
    {
      "bufferView": 1,
      "componentType": 5126,
      "count": 1990,
      "max": [
        1,
        1,
        1
      ],
      "min": [
        -1,
        -1,
        -1
      ],
      "type": "VEC3"
    },
    {
      "bufferView": 2,
      "componentType": 5126,
      "count": 1990,
      "max": [
        1,
        1
      ],
      "min": [
        0,
        0
      ],
      "type": "VEC2"
    },
    {
      "bufferView": 3,
      "componentType": 5125,
      "count": 9828,
      "max": [
        1989
      ],
      "min": [
        0
      ],
      "type": "SCALAR"
    },
    {
      "bufferView": 4,
      "componentType": 5126,
      "count": 1990,
      "max": [
        200,
        200,
        16
      ],
      "min": [
        -200,
        -200,
        0
      ],
      "type": "VEC3"
    },
    {
      "bufferView": 5,
      "componentType": 5126,
      "count": 1990,
      "max": [
        1,
        1,
        1
      ],
      "min": [
        -1,
        -1,
        -1
      ],
      "type": "VEC3"
    },
    {
      "bufferView": 6,
      "componentType": 5126,
      "count": 1990,
      "max": [
        1,
        1
      ],
      "min": [
        0,
        0
      ],
      "type": "VEC2"
    },
    {
      "bufferView": 7,
      "componentType": 5125,
      "count": 9828,
      "max": [
        1989
      ],
      "min": [
        0
      ],
      "type": "SCALAR"
    },
    {
      "bufferView": 8,
      "componentType": 5126,
      "count": 1990,
      "max": [
        200,
        200,
        16
      ],
      "min": [
        -200,
        -200,
        0
      ],
      "type": "VEC3"
    },
    {
      "bufferView": 9,
      "componentType": 5126,
      "count": 1990,
      "max": [
        1,
        1,
        1
      ],
      "min": [
        -1,
        -1,
        -1
      ],
      "type": "VEC3"
    },
    {
      "bufferView": 10,
      "componentType": 5126,
      "count": 1990,
      "max": [
        1,
        1
      ],
      "min": [
        0,
        0
      ],
      "type": "VEC2"
    },
    {
      "bufferView": 11,
      "componentType": 5125,
      "count": 9828,
      "max": [
        1989
      ],
      "min": [
        0
      ],
      "type": "SCALAR"
    }
  ],
  "meshes": [
    {
      "primitives": [
        {
          "mode": 4,
          "attributes": {
            "POSITION": 0,
            "NORMAL": 1,
            "TEXCOORD_0": 2
          },
          "extras": {
            "shape": {
              "points": [
                -200,
                200,
                -200,
                200,
                -200,
                200,
                64,
                200,
                200,
                200,
                200,
                200,
                200,
                64,
                200,
                -200,
                200,
                -200,
                200,
                -200,
                64,
                -200,
                -200,
                -200,
                -200,
                -200,
                -200,
                64
              ],
              "shapeHoles": [],
              "isClosed": true,
              "roundness": 64
            },
            "parameters": {
              "width": 400,
              "depth": 16,
              "cornerRadius": [
                64,
                64,
                64,
                64
              ],
              "cornerType": 0,
              "extrudeBevelSize": 4,
              "extrudeBevelSegments": 4,
              "height": 400,
              "type": "RectangleGeometry"
            },
            "ui": {
              "enabledIndieCorners": false
            },
            "type": "RectangleGeometry"
          },
          "indices": 3
        }
      ]
    },
    {
      "primitives": [
        {
          "mode": 4,
          "attributes": {
            "POSITION": 4,
            "NORMAL": 5,
            "TEXCOORD_0": 6
          },
          "extras": {
            "shape": {
              "points": [
                -200,
                200,
                -200,
                200,
                -200,
                200,
                64,
                200,
                200,
                200,
                200,
                200,
                200,
                64,
                200,
                -200,
                200,
                -200,
                200,
                -200,
                64,
                -200,
                -200,
                -200,
                -200,
                -200,
                -200,
                64
              ],
              "shapeHoles": [],
              "isClosed": true,
              "roundness": 64
            },
            "parameters": {
              "width": 400,
              "depth": 16,
              "cornerRadius": [
                64,
                64,
                64,
                64
              ],
              "cornerType": 0,
              "extrudeBevelSize": 4,
              "extrudeBevelSegments": 4,
              "height": 400,
              "type": "RectangleGeometry"
            },
            "ui": {
              "enabledIndieCorners": false
            },
            "type": "RectangleGeometry"
          },
          "indices": 7
        }
      ]
    },
    {
      "primitives": [
        {
          "mode": 4,
          "attributes": {
            "POSITION": 8,
            "NORMAL": 9,
            "TEXCOORD_0": 10
          },
          "extras": {
            "shape": {
              "points": [
                -200,
                200,
                -200,
                200,
                -200,
                200,
                64,
                200,
                200,
                200,
                200,
                200,
                200,
                64,
                200,
                -200,
                200,
                -200,
                200,
                -200,
                64,
                -200,
                -200,
                -200,
                -200,
                -200,
                -200,
                64
              ],
              "shapeHoles": [],
              "isClosed": true,
              "roundness": 64
            },
            "parameters": {
              "width": 400,
              "depth": 16,
              "cornerRadius": [
                64,
                64,
                64,
                64
              ],
              "cornerType": 0,
              "extrudeBevelSize": 4,
              "extrudeBevelSegments": 4,
              "height": 400,
              "type": "RectangleGeometry"
            },
            "ui": {
              "enabledIndieCorners": false
            },
            "type": "RectangleGeometry"
          },
          "indices": 11
        }
      ]
    }
  ],
  "cameras": [
    {
      "type": "orthographic",
      "orthographic": {
        "xmag": 7.9778393351800565,
        "ymag": 3.90027700831025,
        "zfar": 100000,
        "znear": 0
      }
    }
  ],
  "extensionsUsed": [
    "KHR_lights_punctual"
  ]
}